<svg width="80" height="80" viewBox="0 0 80 80" fill="none" xmlns="http://www.w3.org/2000/svg">
<rect x="0.958679" y="0.731079" width="78.65" height="78.6482" rx="39.3241" fill="#D9D9D9"/>
<path d="M54.0849 5.42083C54.7871 4.56817 56.0476 4.44616 56.9002 5.14832L62.3123 9.60503C63.165 10.3072 63.287 11.5676 62.5848 12.4203L33.8579 47.3036L25.358 40.3041L54.0849 5.42083Z" fill="#464646"/>
<path d="M23.1472 51.5897L25.2763 40.4186L33.7383 47.4472L23.1472 51.5897Z" fill="#464646"/>
<path d="M36.9191 78.5928C37.4332 78.5928 37.819 78.2013 38.3142 78.2013C38.4509 78.2013 38.5023 78.0971 38.6552 78.0894C38.7334 78.0855 38.9225 77.9999 38.9997 77.9651C39.1814 77.8832 39.5133 77.7187 39.7093 77.6979C39.9111 77.6765 40.2502 77.3721 40.4189 77.2752C40.699 77.1145 40.9603 76.8306 41.1699 76.6071C41.4092 76.352 41.753 76.159 42.0035 75.9079C42.2962 75.6146 42.4519 75.2726 42.6856 74.9446C43.2068 74.2132 43.4297 73.4665 43.4297 72.6078C43.4297 71.7937 43.1765 71.0855 42.8854 70.3269C42.7917 70.0827 42.5766 69.8164 42.4031 69.6152C42.0393 69.1933 41.5595 68.7889 41.1389 68.4095C40.7803 68.086 40.3567 67.7817 39.8953 67.5736C39.2333 67.275 38.609 66.8484 37.9112 66.6227C37.149 66.3762 36.4019 66.0359 35.648 65.7588C34.8347 65.4599 33.9996 65.1668 33.1678 64.9167C32.3824 64.6805 31.6425 64.3424 30.8632 64.0932C29.9822 63.8115 29.0913 63.4861 28.2797 63.0677C25.8364 61.8082 22.6549 61.0811 20.9079 58.9596C20.5981 58.5833 20.3986 58.2508 20.2086 57.8129C20.0232 57.3853 20.0738 56.8814 19.8986 56.4705C19.7758 56.1825 19.8676 55.732 19.8676 55.4232C19.8676 55.1236 20.016 54.6956 20.1639 54.4288C20.414 53.9776 20.9589 53.716 21.2317 53.2853C21.4576 52.9286 22.2248 52.9728 22.4098 52.6389" stroke="black" stroke-linecap="round"/>
</svg>
